<svg xmlns="http://www.w3.org/2000/svg" viewBox="0 0 1188.61 953.88">
    <defs>
        <style>.cls-1{fill:#719949;}.cls-2{fill:#212322;}</style>
    </defs>
    <title>Asset 1</title>
    <g id="Layer_2" data-name="Layer 2">
        <g id="Layer_1-2" data-name="Layer 1">
            <path class="cls-1" d="M396.2,161.47l29.35-29.35V.05H29.35L0,29.4V953.88H132.07l29.35-29.35V425.6H396.2l29.35-29.34V264.19H161.42V161.47Zm792.41,763.06-29.35,29.35H895.13L1027.2,425.6,895.13,29.4,924.48.05h264.13L1056.54,396.26Zm-631-396.21H821.76V660.39l-29.35,29.35H528.27V557.67Zm0-528.27H821.76V132.12l-29.35,29.35H528.27V29.4Zm0,264.14H821.76V396.26L792.41,425.6H528.27V293.54ZM821.76,792.46V924.53l-29.35,29.35H264.14V557.67l29.34-29.35H425.55V792.46Z" />
            <path class="cls-2" d="M29.34,924.48V0h396.2V132.07H161.41V264.14H425.54V396.2H161.41V924.48Zm264.13,0H821.75V792.41H425.54V528.27H293.47ZM557.61,660.34H821.75V528.27H557.61Zm0-264.14H821.75V264.14H557.61Zm0-396.2V132.07H821.75V0ZM924.46,0l132.07,396.2L1188.6,0Zm132.07,396.2L924.46,924.48H1188.6Z" />
        </g>
    </g>
</svg>